<svg xmlns="http://www.w3.org/2000/svg" viewBox="218.48 -734 541.74 667.25"><path d="M337 733Q343 734 467.5 734.0Q592 734 604 733Q661 730 703.0 693.0Q745 656 756 602Q769 546 742 492Q725 457 694.5 434.0Q664 411 625 403L614 401L500 400H385V317H583Q599 317 604.0 316.0Q609 315 614 311H615Q622 307 626 301Q634 290 634.0 275.0Q634 260 626 249Q622 243 615 239H614Q609 235 604.0 234.0Q599 233 583 233H385V111Q384 100 383 96Q377 75 358.0 69.0Q339 63 321.5 73.0Q304 83 302 103Q301 107 301 171V233H278Q253 233 251 234Q231 239 223.0 257.0Q215 275 222.5 293.0Q230 311 251 316Q253 317 278 317H301V400H250Q234 409 231 412Q218 425 218.5 442.5Q219 460 232 472Q240 480 249.0 482.0Q258 484 281 484H301V587Q301 654 301 673Q302 698 305 707Q307 714 314 721Q324 731 337 733ZM385 567V484H591Q607 485 613 486Q642 493 658.5 515.0Q675 537 675.5 565.0Q676 593 661 615Q644 639 613 648Q609 649 590 650H385Z" transform="scale(1,-1)"/></svg>
