<svg xmlns="http://www.w3.org/2000/svg" viewBox="114.82 -691 789.18 749"><path d="M475 690Q475 690 479 690Q501 691 516 691Q589 691 662 669Q723 651 780 619Q826 593 862 562Q892 537 901 522Q903 517 904 515V504Q904 493 902 488Q898 481 885 467Q876 457 841 422L798 380Q785 367 780.0 364.0Q775 361 768 359H767Q754 357 742.0 363.5Q730 370 723.5 382.0Q717 394 719 407Q721 417 727.0 424.5Q733 432 765 464L803 502L793 510Q712 574 610 597Q510 619 410 597Q308 574 227 510L217 502Q364 356 510 210L550 249Q582 281 590.0 287.0Q598 293 608 295Q628 299 643.5 283.5Q659 268 655 248V247Q654 240 651 235Q648 229 635 216Q624 204 592 172Q557 137 546 127Q531 113 522.5 110.0Q514 107 503 109H500Q494 110 485 117Q473 127 434 166L303 297L148 453Q121 480 119 485Q115 493 115 501Q114 514 118.5 522.0Q123 530 138 544Q182 586 243 621Q348 680 459 689Q466 690 475 690ZM760 244Q760 244 760 244Q772 263 776.5 267.0Q781 271 793.0 274.0Q805 277 817.0 272.5Q829 268 836 257L837 256Q840 250 841.0 245.0Q842 240 843 224V169L842 98Q829 67 804 67Q772 67 762 96Q761 100 760 111V173ZM792 24Q777 21 768.5 8.5Q760 -4 760.5 -20.0Q761 -36 772.0 -47.0Q783 -58 804 -58Q819 -58 831.0 -46.0Q843 -34 843 -19Q843 6 825 18Q810 28 792 24Z" transform="scale(1,-1)"/></svg>
